<svg width="28" height="28" viewBox="0 0 28 28" fill="none" xmlns="http://www.w3.org/2000/svg">
<g id="Group 427320814">
<rect id="Rectangle 1" width="28" height="28" rx="8.6747" fill="#2B7F75"/>
<path id="Vector" fill-rule="evenodd" clip-rule="evenodd" d="M13.9992 6.51514C14.1769 6.51494 14.3501 6.57124 14.4937 6.67589C14.6373 6.78054 14.7439 6.92812 14.7982 7.09734L18.4702 18.5726L19.9073 14.0826C19.9613 13.9134 20.0676 13.7657 20.2111 13.6609C20.3545 13.556 20.5275 13.4994 20.7051 13.4993H22.102C22.3242 13.4993 22.5374 13.5876 22.6946 13.7448C22.8518 13.902 22.9401 14.1151 22.9401 14.3374C22.9401 14.5597 22.8518 14.7729 22.6946 14.9301C22.5374 15.0872 22.3242 15.1755 22.102 15.1755H21.3164L19.2681 21.5775C19.2137 21.7464 19.1072 21.8937 18.9638 21.9983C18.8205 22.1028 18.6476 22.1591 18.4702 22.1591C18.2928 22.1591 18.1199 22.1028 17.9765 21.9983C17.8331 21.8937 17.7266 21.7464 17.6723 21.5775L14.0059 10.1201L11.4469 18.2218C11.3941 18.3887 11.2903 18.5349 11.1502 18.6399C11.01 18.7448 10.8405 18.8033 10.6655 18.807C10.4904 18.8107 10.3186 18.7594 10.1742 18.6605C10.0297 18.5615 9.91988 18.4198 9.86008 18.2553L8.4476 14.371L8.36938 14.6034C8.31381 14.7702 8.20719 14.9153 8.0646 15.0182C7.92202 15.1211 7.75068 15.1765 7.57485 15.1766H5.89865C5.67637 15.1766 5.4632 15.0883 5.30602 14.9312C5.14885 14.774 5.06055 14.5608 5.06055 14.3385C5.06055 14.1163 5.14885 13.9031 5.30602 13.7459C5.4632 13.5887 5.67637 13.5004 5.89865 13.5004H6.97142L7.61732 11.5594C7.67207 11.3941 7.77697 11.2499 7.91744 11.1469C8.0579 11.044 8.22695 10.9873 8.40109 10.9849C8.57524 10.9824 8.74582 11.0343 8.88913 11.1332C9.03245 11.2322 9.14137 11.3733 9.20077 11.537L10.592 15.3644L13.2013 7.10181C13.2547 6.93194 13.3609 6.78351 13.5043 6.67802C13.6478 6.57253 13.8211 6.51548 13.9992 6.51514Z" fill="white"/>
</g>
</svg>
