<svg width="84" height="18" viewBox="0 0 84 18" fill="none" xmlns="http://www.w3.org/2000/svg">
<g id="WeCare">
<path d="M4.35721 17.7191L0 0.280883H3.7539L7.03856 14.8869H6.03306L9.49648 0.280883H13.0716L16.535 14.8869H15.5295L18.8142 0.280883H22.5681L18.2109 17.7191H14.1889L10.7031 3.6749H11.865L8.37924 17.7191H4.35721Z" fill="#1A1C1E"/>
<path d="M28.5778 18C27.2818 18 26.1571 17.7035 25.2037 17.1105C24.2503 16.502 23.513 15.6905 22.9916 14.6762C22.4702 13.6619 22.2095 12.5384 22.2095 11.3056C22.2095 10.026 22.4777 8.88687 23.0139 7.88817C23.5651 6.88947 24.3025 6.10143 25.2261 5.52406C26.1496 4.94668 27.1924 4.658 28.3543 4.658C29.3226 4.658 30.1791 4.82185 30.924 5.14955C31.6688 5.46164 32.2944 5.90637 32.8009 6.48375C33.3223 7.06112 33.717 7.73212 33.9852 8.49675C34.2533 9.24577 34.3874 10.065 34.3874 10.9545C34.3874 11.2042 34.3725 11.4538 34.3427 11.7035C34.3278 11.9376 34.2905 12.1404 34.231 12.3121H25.092V9.73732H32.3317L30.7452 10.9545C30.8942 10.2835 30.8867 9.69051 30.7228 9.17555C30.559 8.64499 30.2685 8.23147 29.8514 7.93498C29.4492 7.62289 28.9502 7.46684 28.3543 7.46684C27.7734 7.46684 27.2743 7.61508 26.8572 7.91157C26.4401 8.20806 26.1273 8.64499 25.9187 9.22237C25.7102 9.79974 25.6283 10.502 25.673 11.329C25.6134 12.0468 25.6953 12.6788 25.9187 13.225C26.1422 13.7711 26.4848 14.2003 26.9466 14.5124C27.4084 14.8088 27.967 14.9571 28.6225 14.9571C29.2183 14.9571 29.7248 14.8322 30.1419 14.5826C30.5739 14.3329 30.9091 13.9896 31.1474 13.5527L33.8288 14.8869C33.5904 15.5111 33.2106 16.0572 32.6892 16.5254C32.1827 16.9935 31.5794 17.3602 30.8793 17.6255C30.1791 17.8752 29.412 18 28.5778 18Z" fill="#1A1C1E"/>
<path d="M43.9359 18C42.7591 18 41.6642 17.7737 40.6512 17.3212C39.6531 16.8687 38.7817 16.2445 38.0369 15.4486C37.307 14.6372 36.7334 13.6853 36.3163 12.593C35.8992 11.5007 35.6907 10.2991 35.6907 8.9883C35.6907 7.69311 35.8918 6.49935 36.294 5.40702C36.7111 4.29909 37.2921 3.3472 38.0369 2.55137C38.7817 1.73992 39.6531 1.11573 40.6512 0.678803C41.6493 0.226268 42.7442 0 43.9359 0C45.1127 0 46.1629 0.210663 47.0865 0.63199C48.0249 1.05332 48.8145 1.60728 49.455 2.29389C50.0955 2.96489 50.5573 3.69831 50.8404 4.49415L48.4718 5.6645C48.1143 4.72822 47.5408 3.97139 46.7513 3.39402C45.9767 2.80104 45.0382 2.50455 43.9359 2.50455C42.8335 2.50455 41.8578 2.77763 41.0087 3.3238C40.1596 3.86996 39.4967 4.62679 39.02 5.59428C38.5583 6.56177 38.3274 7.69311 38.3274 8.9883C38.3274 10.2835 38.5583 11.4226 39.02 12.4057C39.4967 13.3732 40.1596 14.13 41.0087 14.6762C41.8578 15.2068 42.8335 15.472 43.9359 15.472C45.0382 15.472 45.9767 15.1834 46.7513 14.606C47.5408 14.0286 48.1143 13.2718 48.4718 12.3355L50.8404 13.5059C50.5573 14.2861 50.0955 15.0195 49.455 15.7061C48.8145 16.3927 48.0249 16.9467 47.0865 17.368C46.1629 17.7893 45.1127 18 43.9359 18Z" fill="#1A1C1E"/>
<path d="M56.2607 18C55.4414 18 54.7189 17.8518 54.0933 17.5553C53.4825 17.2432 53.0058 16.8218 52.6632 16.2913C52.3206 15.7451 52.1493 15.1053 52.1493 14.3719C52.1493 13.6853 52.2908 13.0689 52.5738 12.5228C52.8718 11.9766 53.3261 11.5163 53.9368 11.1417C54.5476 10.7672 55.3148 10.502 56.2383 10.3459L60.4391 9.62029V11.7035L56.7299 12.3823C56.0596 12.5072 55.568 12.7334 55.2552 13.0611C54.9424 13.3732 54.7859 13.7789 54.7859 14.2783C54.7859 14.762 54.9573 15.1599 55.2999 15.472C55.6574 15.7685 56.1117 15.9168 56.6629 15.9168C57.3481 15.9168 57.944 15.7607 58.4505 15.4486C58.9718 15.1365 59.374 14.723 59.6571 14.2081C59.9401 13.6775 60.0816 13.0923 60.0816 12.4525V9.19896C60.0816 8.57477 59.8582 8.06762 59.4113 7.6775C58.9793 7.27178 58.3983 7.06892 57.6684 7.06892C56.9981 7.06892 56.4097 7.25618 55.9032 7.63069C55.4116 7.9896 55.0466 8.45774 54.8083 9.03511L52.7079 7.93498C52.9313 7.31079 53.2963 6.76463 53.8028 6.29649C54.3093 5.81274 54.8977 5.43823 55.568 5.17295C56.2532 4.90767 56.9757 4.77503 57.7354 4.77503C58.6888 4.77503 59.5305 4.96229 60.2604 5.3368C61.0052 5.71131 61.5787 6.23407 61.9809 6.90507C62.398 7.56047 62.6066 8.3251 62.6066 9.19896V17.7191H60.1933V15.4252L60.7073 15.4954C60.4242 16.0104 60.0593 16.4551 59.6124 16.8296C59.1804 17.2042 58.6814 17.4928 58.1153 17.6957C57.5641 17.8986 56.9459 18 56.2607 18Z" fill="#1A1C1E"/>
<path d="M65.112 17.7191V5.05592H67.5252V7.60728L67.3017 7.23277C67.5699 6.40572 68.0019 5.81274 68.5977 5.45384C69.1936 5.07932 69.9086 4.89207 70.7428 4.89207H71.4802V7.30299H70.43C69.5958 7.30299 68.918 7.57607 68.3966 8.12224C67.8901 8.6528 67.6369 9.41743 67.6369 10.4161V17.7191H65.112Z" fill="#1A1C1E"/>
<path d="M78.4362 18C77.2296 18 76.157 17.7113 75.2186 17.1339C74.295 16.541 73.5725 15.7451 73.0511 14.7464C72.5297 13.7321 72.2691 12.6008 72.2691 11.3524C72.2691 10.0728 72.5297 8.94148 73.0511 7.95839C73.5874 6.97529 74.3024 6.20286 75.1962 5.64109C76.09 5.06372 77.103 4.77503 78.2351 4.77503C79.1438 4.77503 79.9556 4.93888 80.6706 5.26658C81.3857 5.59428 81.989 6.04681 82.4806 6.62419C82.9721 7.18596 83.3446 7.83355 83.5978 8.56697C83.8659 9.30039 84 10.0806 84 10.9077C84 11.1105 83.9926 11.3212 83.9777 11.5397C83.9628 11.7581 83.933 11.961 83.8883 12.1482H74.2577V10.0416H82.4582L81.2516 11.0013C81.4006 10.2367 81.3484 9.55787 81.0952 8.96489C80.8569 8.35631 80.4844 7.88036 79.978 7.53706C79.4864 7.17815 78.9054 6.9987 78.2351 6.9987C77.5647 6.9987 76.9689 7.17815 76.4475 7.53706C75.9261 7.88036 75.5239 8.37971 75.2409 9.03511C74.9579 9.6749 74.8461 10.4551 74.9057 11.3758C74.8312 12.2341 74.943 12.9831 75.2409 13.6229C75.5537 14.2627 75.9857 14.762 76.5369 15.1209C77.103 15.4798 77.7435 15.6593 78.4585 15.6593C79.1885 15.6593 79.8067 15.4876 80.3131 15.1443C80.8345 14.801 81.2442 14.3563 81.5421 13.8101L83.5978 14.8635C83.3595 15.4564 82.987 15.9948 82.4806 16.4785C81.989 16.9467 81.3931 17.3212 80.693 17.6021C80.0078 17.8674 79.2555 18 78.4362 18Z" fill="#1A1C1E"/>
</g>
</svg>
